<?xml version="1.0" encoding="utf-8"?>
<!-- Generator: Adobe Illustrator 16.0.3, SVG Export Plug-In . SVG Version: 6.00 Build 0)  -->
<!DOCTYPE svg PUBLIC "-//W3C//DTD SVG 1.1//EN" "http://www.w3.org/Graphics/SVG/1.1/DTD/svg11.dtd">
<svg version="1.1" xmlns="http://www.w3.org/2000/svg" xmlns:xlink="http://www.w3.org/1999/xlink" x="0px" y="0px" width="128px"
	 height="128px" viewBox="0 0 128 128" enable-background="new 0 0 128 128" xml:space="preserve">
<g id="Ebene_2" display="none">
	<g display="inline">
		<linearGradient id="SVGID_1_" gradientUnits="userSpaceOnUse" x1="64.0005" y1="116.416" x2="64.0005" y2="13.6246">
			<stop  offset="0.3" style="stop-color:#426080"/>
			<stop  offset="1" style="stop-color:#819CBD"/>
		</linearGradient>
		<path fill="url(#SVGID_1_)" d="M95.651,13.426H32.347C19.454,13.426,9,23.88,9,36.774v30.299C9,79.97,19.454,90.421,32.347,90.421
			h34.539c2.035,5.361,4.119,16.285-6.902,25.995c20.145-3.741,29.606-19.512,32.702-25.995h2.966
			C108.545,90.421,119,79.97,119,67.073V36.774C119,23.88,108.545,13.426,95.651,13.426z"/>
	</g>
	<g display="inline">
		<path fill="#404547" d="M117.643,71.393l-46.401,46.328c-0.899,0.899-2.226,1.323-3.974,1.274
			c-1.599-0.047-2.823-0.476-3.673-1.274L43.578,97.704c-0.899-0.898-1.348-1.997-1.348-3.297c0-1.299,0.449-2.398,1.348-3.299
			l6.673-6.672c0.899-0.897,1.998-1.349,3.298-1.349c1.299,0,2.398,0.451,3.298,1.349l10.57,10.571l36.957-36.883
			c0.899-0.9,1.998-1.349,3.297-1.349s2.399,0.449,3.3,1.349l6.671,6.596c0.898,0.951,1.35,2.063,1.35,3.336
			C118.992,69.333,118.541,70.443,117.643,71.393z"/>
	</g>
</g>
<g id="Ebene_2_Kopie">
	<g>
		<linearGradient id="SVGID_2_" gradientUnits="userSpaceOnUse" x1="64.0005" y1="116.416" x2="64.0005" y2="13.625">
			<stop  offset="0.3" style="stop-color:#426080"/>
			<stop  offset="1" style="stop-color:#819CBD"/>
		</linearGradient>
		<path fill="url(#SVGID_2_)" d="M43.186,77.359c2.759-2.754,6.44-4.271,10.364-4.271c3.921,0,7.6,1.516,10.37,4.278l3.507,3.506
			l29.876-29.816c2.759-2.76,6.441-4.28,10.37-4.28c3.918,0,7.592,1.511,10.348,4.255L119,52V36.774
			c0-12.894-10.455-23.348-23.349-23.348H32.347C19.454,13.426,9,23.88,9,36.774v30.299C9,79.97,19.454,90.421,32.347,90.421h0.437
			c0.667-2.392,1.927-4.584,3.724-6.384L43.186,77.359z"/>
	</g>
	<g>
		<path fill="#404547" d="M117.643,71.393l-46.401,46.328c-0.899,0.899-2.226,1.323-3.974,1.274
			c-1.599-0.047-2.823-0.476-3.673-1.274L43.578,97.704c-0.899-0.898-1.348-1.997-1.348-3.297c0-1.299,0.449-2.398,1.348-3.299
			l6.673-6.672c0.899-0.897,1.998-1.349,3.298-1.349c1.299,0,2.398,0.451,3.298,1.349l10.57,10.571l36.957-36.883
			c0.899-0.9,1.998-1.349,3.297-1.349s2.399,0.449,3.3,1.349l6.671,6.596c0.898,0.951,1.35,2.063,1.35,3.336
			C118.992,69.333,118.541,70.443,117.643,71.393z"/>
	</g>
</g>
</svg>
