<svg id="Layer_1" data-name="Layer 1" xmlns="http://www.w3.org/2000/svg" xmlns:xlink="http://www.w3.org/1999/xlink" viewBox="0 0 111.84 111.84"><defs><linearGradient id="linear-gradient" x1="32.8" y1="-0.67" x2="32.8" y2="110.27" gradientUnits="userSpaceOnUse"><stop offset="0" stop-color="#8099ba"/><stop offset="1" stop-color="#425e7f"/></linearGradient></defs><title>teamspeak_vectors</title><path d="M42.87,110.77c-13.2,0-25.84-.05-38.48,0-2.42,0-3.1-.77-3.08-3.13A104.82,104.82,0,0,1,5.66,77.17c1.62-5.23,5-9.33,9.07-12.9,10.34-9,11.2-14,3.81-25.67-5.5-8.68-5-17.4-.68-26.08,5-10,15.71-13.81,27.89-10.43,9.1,2.53,14.53,10.74,13.94,21.53-.17,3.1,2.09,4.71,3.32,6.94,2.48,4.48,1.4,7.36-3.57,6.93-9.24-.8-14,5.24-18.72,11.17-4,5-3.38,11.61,1.08,16.41C45.43,69,49.14,72.79,53,76.49c1.83,1.76,2.07,3,.08,4.83-3,2.68-5.69,5.61-8.51,8.44C37.64,96.68,37.1,101.85,42.87,110.77Z" style="fill:url(#linear-gradient)"/><path d="M56,46a7,7,0,0,1,4.46,2.56c5.25,5.35,10.75,10.47,15.76,16,2.19,2.42,3.2,1.69,5-.14,5-5.15,10.15-10.11,15.14-15.25,2.75-2.83,5.32-3.1,8.08-.12A46.22,46.22,0,0,0,108,52.64c3.64,3.17,3.14,6.09-.15,9.24-4.93,4.72-9.6,9.72-14.55,14.42-2,1.9-2.22,3.08-.09,5.12,5.16,5,10,10.24,15.1,15.27,2.82,2.78,3.09,5.33.08,8-.25.22-.48.46-.71.7-7.1,7.26-7.1,7.26-14.38,0C89.17,101.3,85,97.26,81,93c-1.69-1.8-2.77-1.67-4.4,0-4.63,4.8-9.38,9.47-14.1,14.17-5.07,5.06-6.11,5-11.32-.16-.59-.59-1.14-1.23-1.77-1.76-3.66-3.1-3.35-5.94.08-9.15,5-4.67,9.55-9.78,14.59-14.39,2.56-2.34,2.11-3.66-.13-5.8-5.18-4.94-10-10.26-15.17-15.21-3.46-3.31-3.31-6.21.16-9.21C51.25,49.51,52.83,46.46,56,46Z" style="fill:#424749"/><path d="M110,41.48c-3.1-1.15-5.42-2.88-8.34-2.75-1.79.08-1.94-1.45-2.38-2.68a62.1,62.1,0,0,0-14-22.69c-2.15-2.21-2.8-4.67-.35-7,2.22-2.07,4.69-1.48,6.64.55A70.15,70.15,0,0,1,110,41.48Z" style="fill:#446181"/><path d="M83.45,52.18A47.78,47.78,0,0,0,70.83,25.8c-1.6-1.72-1.23-4.13.63-5.81s4-1.55,5.82.14A42.26,42.26,0,0,1,90.19,42.08C91.18,46.55,85.76,47.58,83.45,52.18Z" style="fill:#446181"/><path d="M108.78,74.21c-.85,3.42-.66,5.83-2.9,7.08-.27.15-1.94-1.16-2-1.84C103.8,76.78,106.06,76,108.78,74.21Z" style="fill:#446181"/></svg>