<svg id="Layer_1" data-name="Layer 1" xmlns="http://www.w3.org/2000/svg" xmlns:xlink="http://www.w3.org/1999/xlink" viewBox="0 0 111.84 111.84"><defs><linearGradient id="linear-gradient" x1="55.92" y1="6.93" x2="55.92" y2="52.82" gradientUnits="userSpaceOnUse"><stop offset="0" stop-color="#fff"/><stop offset="1" stop-color="#c90b0e"/></linearGradient><linearGradient id="linear-gradient-2" x1="55.92" y1="-32.9" x2="55.92" y2="3.33" gradientTransform="translate(111.84 72.51) rotate(180)" gradientUnits="userSpaceOnUse"><stop offset="0" stop-color="#fff"/><stop offset="0" stop-color="#fffefe"/><stop offset="0.22" stop-color="#efb5b6"/><stop offset="0.43" stop-color="#e1797a"/><stop offset="0.61" stop-color="#d7494c"/><stop offset="0.78" stop-color="#cf272a"/><stop offset="0.91" stop-color="#cb1315"/><stop offset="1" stop-color="#c90b0e"/></linearGradient></defs><title>teamspeak_vectors</title><circle cx="55.92" cy="55.92" r="55" style="fill:#c90b0e"/><path d="M103,46.23a32.51,32.51,0,0,1-3.67,14.93c-8-11.89-23.49-20-41.27-20-19.52,0-36.26,9.7-43.41,23.54A32.94,32.94,0,0,1,8.84,46.23C8.84,25,29.91,7.76,55.92,7.76S103,25,103,46.23Z" style="opacity:0.8;fill:url(#linear-gradient)"/><path d="M15.84,74.38A24.18,24.18,0,0,1,19,62.59C25.79,72,39,78.34,54.1,78.34c16.62,0,30.87-7.66,37-18.59A24.72,24.72,0,0,1,96,74.38c0,16.77-17.94,30.38-40.08,30.38S15.84,91.15,15.84,74.38Z" style="opacity:0.3;fill:url(#linear-gradient-2)"/></svg>