<svg id="Layer_1" data-name="Layer 1" xmlns="http://www.w3.org/2000/svg" xmlns:xlink="http://www.w3.org/1999/xlink" viewBox="0 0 111.84 111.84"><defs><linearGradient id="linear-gradient" x1="38.29" y1="-0.68" x2="38.29" y2="114.47" gradientUnits="userSpaceOnUse"><stop offset="0" stop-color="#8099ba"/><stop offset="1" stop-color="#425e7f"/></linearGradient><linearGradient id="linear-gradient-2" x1="92.65" y1="-0.68" x2="92.65" y2="114.47" xlink:href="#linear-gradient"/></defs><title>teamspeak_vectors</title><path d="M42,73.58c2.29,8.73,4.73,17.51,6.86,26.37,1.6,6.65-2.87,11.53-9.66,10.9-4.28-.4-6.38-3.1-7.4-7-2.36-9-4.84-18-7.06-27C24,73.95,22.8,72.55,19.67,73a33.43,33.43,0,0,1-5.49,0c-5.12-.16-8.24-2.85-8.33-7.94q-.27-16,.08-32c.11-5.34,3.27-8.15,8.66-8.16q26-.08,52,0c1.48,0,3.54-.77,3.7,2,.13,2.23-.24,3.59-2.94,4.17-5,1.07-11.48,1.37-14.21,5.12S53.65,46,54,51.1c.26,4.3,1.33,8.56,1.63,12.86.23,3.31,1.51,3.06,3.65,1.72A14.14,14.14,0,0,1,62.31,64c2.6-.82,5.41-4.52,7.35-2.64,2.17,2.11.68,6.31.69,9.6,0,2.6-2.19,2-3.72,2-8,.1-16,.13-24,.2C42.53,73.2,42.4,73.34,42,73.58Z" style="fill:url(#linear-gradient)"/><path d="M63.13,53.51c-.14-.84-.27-1.48-.34-2.14C61.66,40.6,61.65,40.53,72.43,39c6.94-1,13.9-1.3,20.73.84,12.06,3.77,16.43,15.27,10,26.21-2.39,4-5.79,7.26-8.86,10.74C91.37,80,88.61,83.37,88.49,88c-.06,2.19-1.27,2.85-3.26,2.62a12.23,12.23,0,0,0-1.5,0c-8.76.07-10.1-1.93-6.89-10.39,1.32-3.48,3.72-6.24,6.06-9.06a56.73,56.73,0,0,0,6-7.92c3.71-6.54,1.09-11.92-6.29-13.22-5-.88-9.92,0-14.69,1.7C66.34,52.32,64.8,52.9,63.13,53.51Z" style="fill:#44494b"/><path d="M105.46.94V36c-7.3-4.39-14.92-6.77-23.21-6.48-1.07,0-2.21-.27-2.1-1.52.25-2.84-1.48-6.19,1.32-8.42C89.19,13.42,97.07,7.43,105.46.94Z" style="fill:url(#linear-gradient-2)"/><path d="M82.22,110.82c-7.62,0-7.62,0-7.62-7.47,0-6.4,0-6.45,8.8-6.38,6.88.05,5.85-1.11,5.92,7.79C89.37,110.82,89.33,110.82,82.22,110.82Z" style="fill:#44494b"/></svg>