<?xml version="1.0" encoding="iso-8859-1"?>
<!-- Generator: Adobe Illustrator 15.0.0, SVG Export Plug-In . SVG Version: 6.00 Build 0)  -->
<!DOCTYPE svg PUBLIC "-//W3C//DTD SVG 1.1//EN" "http://www.w3.org/Graphics/SVG/1.1/DTD/svg11.dtd">
<svg version="1.1" id="Ebene_4_Kopie_Kopie" xmlns="http://www.w3.org/2000/svg" xmlns:xlink="http://www.w3.org/1999/xlink"
	 x="0px" y="0px" width="128px" height="128px" viewBox="0 0 128 128" enable-background="new 0 0 128 128" xml:space="preserve">
<linearGradient id="SVGID_1_" gradientUnits="userSpaceOnUse" x1="66.3516" y1="119" x2="66.3516" y2="9.2582">
	<stop  offset="0.3" style="stop-color:#426080"/>
	<stop  offset="1" style="stop-color:#819CBD"/>
</linearGradient>
<path fill="url(#SVGID_1_)" d="M118.166,13.831C93.428,30.572,76.565,6.768,60.638,9.185c-10.67,1.619-10.411,9.006-10.411,26.967
	c0,3.411,0,54.263,0,54.263c-3.762-1.765-8.33-2.802-13.259-2.802c-12.846,0-23.263,7.029-23.263,15.69
	c0,8.675,10.417,15.696,23.263,15.696c12.775,0,23.137-6.94,23.256-15.546l0.006-0.001V29.31c0,0,0-0.544,0-1.102
	c9.458-3.833,21.352,11.176,43.086,8.698C124.297,34.512,118.166,13.831,118.166,13.831z"/>
</svg>
