<svg id="Layer_1" data-name="Layer 1" xmlns="http://www.w3.org/2000/svg" xmlns:xlink="http://www.w3.org/1999/xlink" viewBox="0 0 128 128"><defs><linearGradient id="linear-gradient" x1="64" y1="-0.74" x2="64" y2="141.7" gradientUnits="userSpaceOnUse"><stop offset="0" stop-color="#728dae"/><stop offset="1" stop-color="#426080"/></linearGradient></defs><title>1</title><path d="M124.95,66.16c-.3-4.6-.14-9.22-.18-13.84.07-6.25.22-12.51.18-18.77C124.88,18.73,114.2,7.38,99.4,7.19Q64,6.78,28.63,7.19c-13.33.14-24.78,10.6-25.45,23-.41,7.34,0,14.73.08,22.08,0,4.43-.11,8.85-.13,13.29C3,81.87,13.68,92.69,29.92,92.8c10.53.08,21.05.32,31.55-.11,5.57-.22,6.65,2.32,7,7,.61,8.3-2.3,15.07-8.54,21a11.23,11.23,0,0,0,2.32.24,19.17,19.17,0,0,0,2.67-.65c12.84-3.82,22.16-12.09,28.8-23.45,1.68-2.87,3.42-4,6.8-4.21C114,91.82,125.87,80.3,124.95,66.16ZM88.78,41.62C85.19,45,81.87,48.7,78.43,52.26q-9.54,9.44-19.07,18.9c-4.58,4.54-6,4.49-10.5-.11-3.56-3.63-7.11-7.28-10.94-10.61-2.36-2.07-3.43-4.09-2-7a25.29,25.29,0,0,0,2.83-2.6c3.32-4,6.58-4.27,9.92,0,.81,1,1.93,1.75,2.7,2.77,2,2.57,3.52,2.17,5.65-.06C64.2,46,71.56,38.75,78.87,31.41c5-5,5.42-4.74,11.08.39C94.59,36,92,38.57,88.78,41.62Z" style="fill:url(#linear-gradient)"/><path d="M124.95,66.16c-.3-4.6-.14-9.22-.18-13.84.07-6.25.22-12.51.18-18.77C124.88,18.73,114.2,7.38,99.4,7.19Q64,6.78,28.63,7.19c-13.33.14-24.78,10.6-25.45,23-.41,7.34,0,14.73.08,22.08,0,4.43-.11,8.85-.13,13.29C3,81.87,13.68,92.69,29.92,92.8c10.53.08,21.05.32,31.55-.11,5.57-.22,6.65,2.32,7,7,.61,8.3-2.3,15.07-8.54,21a11.23,11.23,0,0,0,2.32.24,19.17,19.17,0,0,0,2.67-.65c12.84-3.82,22.16-12.09,28.8-23.45,1.68-2.87,3.42-4,6.8-4.21C114,91.82,125.87,80.3,124.95,66.16ZM88.78,41.62C85.19,45,81.87,48.7,78.43,52.26q-9.54,9.44-19.07,18.9c-4.58,4.54-6,4.49-10.5-.11-3.56-3.63-7.11-7.28-10.94-10.61-2.36-2.07-3.43-4.09-2-7a25.29,25.29,0,0,0,2.83-2.6c3.32-4,6.58-4.27,9.92,0,.81,1,1.93,1.75,2.7,2.77,2,2.57,3.52,2.17,5.65-.06C64.2,46,71.56,38.75,78.87,31.41c5-5,5.42-4.74,11.08.39C94.59,36,92,38.57,88.78,41.62Z" style="fill:url(#linear-gradient)"/><rect y="127.56" width="0.44" height="0.44" style="fill:none"/><rect x="127.56" y="127.56" width="0.44" height="0.44" style="fill:none"/><rect x="127.56" width="0.44" height="0.44" style="fill:none"/><rect width="0.44" height="0.44" style="fill:none"/></svg>