<?xml version="1.0" encoding="iso-8859-1"?>
<!-- Generator: Adobe Illustrator 15.0.0, SVG Export Plug-In . SVG Version: 6.00 Build 0)  -->
<!DOCTYPE svg PUBLIC "-//W3C//DTD SVG 1.1//EN" "http://www.w3.org/Graphics/SVG/1.1/DTD/svg11.dtd">
<svg version="1.1" id="Ebene_1" xmlns="http://www.w3.org/2000/svg" xmlns:xlink="http://www.w3.org/1999/xlink" x="0px" y="0px"
	 width="128px" height="128px" viewBox="0 0 128 128" style="enable-background:new 0 0 128 128;" xml:space="preserve">
<g>
	
		<linearGradient id="SVGID_1_" gradientUnits="userSpaceOnUse" x1="64.0005" y1="126" x2="64.0005" y2="23.2086" gradientTransform="matrix(-1 0 0 1 128 0)">
		<stop  offset="0.3" style="stop-color:#426080"/>
		<stop  offset="1" style="stop-color:#819CBD"/>
	</linearGradient>
	<path style="fill:url(#SVGID_1_);" d="M9,46.358v30.299c0,12.896,10.455,23.348,23.349,23.348h2.966
		c3.096,6.483,12.558,22.254,32.702,25.995c-11.021-9.71-8.938-20.634-6.902-25.995h34.539c12.893,0,23.347-10.451,23.347-23.348
		V46.358c0-12.894-10.454-23.348-23.347-23.348H32.349C19.455,23.01,9,33.464,9,46.358z"/>
</g>
<path style="fill:#FFFFFF;" d="M78.24,89.084l-4.288-12.687H53.486l-4.288,12.687H39l19.266-55h11.183l19.551,55H78.24z
	 M66.29,52.244c-0.333-1.128-0.648-2.287-0.952-3.469c-0.306-1.18-0.601-2.297-0.877-3.347c-0.285-1.052-0.492-1.942-0.638-2.68
	h-0.138c-0.187,0.738-0.422,1.627-0.698,2.68c-0.286,1.05-0.6,2.167-0.954,3.347c-0.354,1.183-0.689,2.341-1.022,3.469
	c-0.325,1.131-0.63,2.116-0.915,2.95l-4.073,12.854h15.255l-4.073-12.854C66.921,54.36,66.615,53.375,66.29,52.244z"/>
</svg>
