<?xml version="1.0" encoding="iso-8859-1"?>
<!-- Generator: Adobe Illustrator 15.0.0, SVG Export Plug-In . SVG Version: 6.00 Build 0)  -->
<!DOCTYPE svg PUBLIC "-//W3C//DTD SVG 1.1//EN" "http://www.w3.org/Graphics/SVG/1.1/DTD/svg11.dtd">
<svg version="1.1" id="Ebene_4" xmlns="http://www.w3.org/2000/svg" xmlns:xlink="http://www.w3.org/1999/xlink" x="0px" y="0px"
	 width="128px" height="128px" viewBox="0 0 128 128" style="enable-background:new 0 0 128 128;" xml:space="preserve">
<rect x="8" y="108" style="fill:#404547;" width="110" height="10"/>
<polyline style="fill:#404547;" points="41.625,65.375 76.098,109.406 66.491,114.937 28.019,65.375 "/>
<linearGradient id="SVGID_1_" gradientUnits="userSpaceOnUse" x1="63.0005" y1="52.2432" x2="63.0005" y2="19.7578">
	<stop  offset="0.3" style="stop-color:#426080"/>
	<stop  offset="1" style="stop-color:#819CBD"/>
</linearGradient>
<path style="fill:url(#SVGID_1_);" d="M36.134,27.999c5.426,0,10.479,0.927,15.049,2.769c4.728,1.925,8.799,4.7,12.097,8.246
	c3.26,3.502,5.794,7.726,7.547,12.596c0.073,0.208,0.137,0.423,0.208,0.633h38.371c4.746,0,8.594-3.828,8.594-8.549V28.307
	c0-4.722-3.848-8.549-8.594-8.549H16.594C11.848,19.758,8,23.584,8,28.307v10.572c0.068-0.072,0.132-0.148,0.201-0.219
	C15.061,31.586,24.459,27.999,36.134,27.999z M79.031,30.346c0-1.125,0.916-2.039,2.05-2.039h24.557c1.134,0,2.05,0.914,2.05,2.039
	v11.31c0,1.126-0.916,2.039-2.05,2.039H81.081c-1.134,0-2.05-0.913-2.05-2.039V30.346z"/>
<path style="fill:#FFFFFF;" d="M81.081,43.694h24.557c1.134,0,2.05-0.913,2.05-2.039v-11.31c0-1.125-0.916-2.039-2.05-2.039H81.081
	c-1.134,0-2.05,0.914-2.05,2.039v11.31C79.031,42.781,79.947,43.694,81.081,43.694z"/>
<linearGradient id="SVGID_2_" gradientUnits="userSpaceOnUse" x1="94.1973" y1="96.5566" x2="94.1973" y2="64.0728">
	<stop  offset="0.3" style="stop-color:#426080"/>
	<stop  offset="1" style="stop-color:#819CBD"/>
</linearGradient>
<path style="fill:url(#SVGID_2_);" d="M73.288,67.021c0-0.999-0.035-1.979-0.088-2.949h36.206c4.746,0,8.594,3.827,8.594,8.548
	v15.389c0,4.722-3.848,8.548-8.594,8.548H84l-3.426-0.005l-10.179-13.07c0.101-0.259,0.208-0.513,0.305-0.775
	C72.417,78.022,73.288,72.745,73.288,67.021z"/>
<g>
	<g>
		<g>
			<path style="fill:#404547;" d="M36.134,37.999c4.154,0,7.929,0.681,11.279,2.031c3.338,1.359,6.204,3.278,8.548,5.798
				c2.344,2.518,4.157,5.555,5.442,9.126c1.264,3.563,1.885,7.592,1.885,12.068c0,4.554-0.655,8.639-1.977,12.245
				c-1.329,3.629-3.187,6.726-5.588,9.291c-2.403,2.575-5.333,4.535-8.777,5.925c-3.414,1.39-7.245,2.055-11.462,2.055
				c-4.155,0-7.936-0.661-11.347-2.006c-3.398-1.354-6.298-3.286-8.67-5.853c-2.375-2.531-4.218-5.619-5.525-9.195
				C8.646,75.891,8,71.844,8,67.359c0-9.409,2.461-16.654,7.379-21.738C20.3,40.548,27.217,37.999,36.134,37.999z M35.448,46.847
				c-2.28,0-4.356,0.477-6.212,1.455c-1.872,0.976-3.485,2.355-4.853,4.133c-1.351,1.794-2.387,3.958-3.12,6.483
				c-0.734,2.546-1.1,5.355-1.1,8.441c0,3.084,0.366,5.87,1.1,8.377c0.733,2.515,1.789,4.646,3.169,6.429
				c1.379,1.727,3.017,3.126,4.923,4.069c1.886,0.989,4.022,1.466,6.421,1.466c2.276,0,4.337-0.492,6.211-1.489
				c1.865-1,3.484-2.401,4.838-4.165c1.344-1.808,2.403-3.951,3.181-6.47c0.744-2.496,1.139-5.275,1.139-8.313
				c0-3.127-0.369-5.949-1.11-8.5c-0.736-2.548-1.777-4.702-3.156-6.459c-1.382-1.743-3.051-3.104-4.978-4.046
				C39.986,47.315,37.825,46.847,35.448,46.847z"/>
		</g>
	</g>
</g>
<path style="fill:#FFFFFF;" d="M107.688,74.66c0-1.131-0.913-2.04-2.051-2.04H81.082c-1.138,0-2.051,0.909-2.051,2.04v11.309
	c0,1.132,0.913,2.04,2.051,2.04h24.555c1.138,0,2.051-0.908,2.051-2.04V74.66z"/>
</svg>
