<?xml version="1.0" encoding="iso-8859-1"?>
<!-- Generator: Adobe Illustrator 15.0.0, SVG Export Plug-In . SVG Version: 6.00 Build 0)  -->
<!DOCTYPE svg PUBLIC "-//W3C//DTD SVG 1.1//EN" "http://www.w3.org/Graphics/SVG/1.1/DTD/svg11.dtd">
<svg version="1.1" id="Ebene_4" xmlns="http://www.w3.org/2000/svg" xmlns:xlink="http://www.w3.org/1999/xlink" x="0px" y="0px"
	 width="128px" height="128px" viewBox="0 0 128 128" style="enable-background:new 0 0 128 128;" xml:space="preserve">
<linearGradient id="SVGID_1_" gradientUnits="userSpaceOnUse" x1="64.0005" y1="116.416" x2="64.0005" y2="16.6786">
	<stop  offset="0.2" style="stop-color:#426080"/>
	<stop  offset="1" style="stop-color:#819CBD"/>
</linearGradient>
<path style="fill:url(#SVGID_1_);" d="M95.651,13.426H32.347C19.454,13.426,9,23.88,9,36.774v30.299
	C9,79.97,19.454,90.421,32.347,90.421h34.539c2.034,5.361,4.119,16.286-6.902,25.995c20.145-3.741,29.607-19.513,32.703-25.995
	h2.965C108.545,90.421,119,79.97,119,67.073V36.774C119,23.88,108.545,13.426,95.651,13.426z"/>
<g>
	<path style="fill:#FFFFFF;" d="M88.875,41.831L57.706,72.949c-0.604,0.604-1.494,0.891-2.668,0.856
		c-1.075-0.033-1.897-0.318-2.467-0.856L39.125,59.505c-0.604-0.604-0.906-1.342-0.906-2.216c0-0.872,0.302-1.611,0.906-2.215
		l4.481-4.481c0.604-0.604,1.342-0.906,2.216-0.906c0.873,0,1.611,0.302,2.215,0.906l7.1,7.1l24.825-24.774
		c0.604-0.604,1.342-0.906,2.216-0.906c0.872,0,1.611,0.302,2.215,0.906l4.481,4.432c0.604,0.638,0.906,1.385,0.906,2.24
		C89.781,40.446,89.479,41.193,88.875,41.831z"/>
</g>
</svg>
